<?xml version="1.0" standalone="no"?><!DOCTYPE svg PUBLIC "-//W3C//DTD SVG 1.1//EN" "http://www.w3.org/Graphics/SVG/1.1/DTD/svg11.dtd"><svg t="1520939051988" class="icon" style="" viewBox="0 0 1024 1024" version="1.1" xmlns="http://www.w3.org/2000/svg" p-id="1471" xmlns:xlink="http://www.w3.org/1999/xlink" width="200" height="200"><defs><style type="text/css"></style></defs><path d="M838.227969 771.083733l0 177.942715c0 40.947598-33.19503 74.141604-74.142627 74.141604L259.914658 1023.168052c-40.947598 0-74.142627-33.194006-74.142627-74.141604l0-177.942715c0-40.418548 59.313897-44.485167 59.313897-44.485167l0-308.956607c-37.258579-21.687952-59.313897-37.659715-59.313897-76.585259 0-38.926568 18.085914-148.189064 188.373275-201.965851-6.431479-6.668886-10.43056-15.700587-10.43056-25.695219L363.714745 37.07029c0-20.472264 16.598027-37.07029 37.071314-37.07029l222.427882 0c20.473287 0 37.071314 16.598027 37.071314 37.07029L660.285255 113.39563c0 9.994632-3.999081 19.026332-10.431583 25.695219 170.288384 53.776787 188.374298 163.039283 188.374298 201.965851 0 38.924521-22.057365 54.896284-59.313897 76.585259l0 308.956607C778.913049 726.598566 838.227969 730.665185 838.227969 771.083733zM749.256612 822.983777c0-20.473287-16.598027-37.072337-37.071314-37.072337L423.028643 785.91144l0-59.312874 266.914072 0L689.942715 474.513224 423.028643 474.513224l0-5.214768L423.028643 415.199327l0-14.82873 303.985386 0c12.283768 0 22.242584-9.958816 22.242584-22.242584l0-74.144674c0-9.721409-6.277984-17.899672-14.971993-20.924565 0.013303-0.443092 0.144286-0.873903 0.144286-1.318018 0-57.325613-99.584066-103.798041-222.427882-103.798041s-222.427882 46.472428-222.427882 103.798041c0 0.445138 0.130983 0.874927 0.14224 1.318018-8.692986 3.024893-14.97097 11.203156-14.97097 20.924565l0 74.144674c0 12.283768 9.958816 22.242584 22.242584 22.242584 0 0 37.071314 16.444531 37.071314 52.457746 0 36.011168 0 235.638765 0 273.770224 0 38.130436-22.242584 59.312874-22.242584 59.312874-20.473287 0-37.071314 16.59905-37.071314 37.072337l0 74.141604c0 20.475334 16.598027 37.07336 37.071314 37.07336l400.370597 0c20.473287 0 37.071314-16.598027 37.071314-37.07336L749.257635 822.983777z" p-id="1472" fill="#515151"></path></svg>