<?xml version="1.0" standalone="no"?><!DOCTYPE svg PUBLIC "-//W3C//DTD SVG 1.1//EN" "http://www.w3.org/Graphics/SVG/1.1/DTD/svg11.dtd"><svg t="1522309396490" class="icon" style="" viewBox="0 0 1024 1024" version="1.1" xmlns="http://www.w3.org/2000/svg" p-id="14939" xmlns:xlink="http://www.w3.org/1999/xlink" width="128" height="128"><defs><style type="text/css"></style></defs><path d="M921.6 119.466667h-34.133333V85.333333a68.266667 68.266667 0 0 0-68.266667-68.266666H204.8a68.266667 68.266667 0 0 0-68.266667 68.266666v34.133334H102.4c-56.4736 0-102.4 45.9264-102.4 102.4v68.266666c0 56.4736 45.9264 102.4 102.4 102.4h34.133333c0 195.003733 150.6816 356.437333 341.333334 373.828267V870.4h-95.812267a34.133333 34.133333 0 0 0-31.965867 22.152533l-25.6 68.266667A34.133333 34.133333 0 0 0 356.4544 1006.933333h311.0912a34.133333 34.133333 0 0 0 31.965867-46.114133l-25.6-68.266667A34.133333 34.133333 0 0 0 641.9456 870.4H546.133333v-104.0384C736.785067 748.970667 887.466667 587.537067 887.466667 392.533333h34.133333c56.4736 0 102.4-45.9264 102.4-102.4v-68.266666c0-56.456533-45.9264-102.4-102.4-102.4zM102.4 324.266667c-18.824533 0-34.133333-15.3088-34.133333-34.133334v-68.266666c0-18.824533 15.3088-34.133333 34.133333-34.133334h34.133333v136.533334H102.4z m541.713067-1.706667l-55.0912 56.32 12.424533 77.346133a15.530667 15.530667 0 0 1-14.728533 20.4288h-0.2048a16.213333 16.213333 0 0 1-7.2192-1.7408l-67.4304-37.512533-67.396267 37.0688a15.530667 15.530667 0 1 1-22.801067-16.128l13.141334-79.752533-54.954667-56.541867a15.394133 15.394133 0 0 1-3.584-15.752533 15.36 15.36 0 0 1 12.373333-10.410667l75.502934-11.3664 33.9968-72.0384a15.547733 15.547733 0 0 1 28.142933 0.068267l33.723733 72.2432 75.383467 11.605333c5.751467 0.853333 10.478933 4.864 12.3392 10.4448a15.428267 15.428267 0 0 1-3.618133 15.7184zM955.733333 290.133333c0 18.824533-15.3088 34.133333-34.133333 34.133334h-34.133333v-136.533334h34.133333c18.824533 0 34.133333 15.3088 34.133333 34.133334v68.266666z" fill="#FFB9B9" p-id="14940"></path></svg>